# xmcd
#
# Track frame offsets:
#	150
#	14415
#	28142
#	37780
#	49832
#	63210
#	73412
#	84952
#	96827
#	107542
#	120797
#	132287
#	143615
#	154190
#
# Disc length: 2249 seconds
#
# Revision: 2
# Processed by: cddbd v1.5.2PL0 Copyright (c) Steve Scherf et al.
# Submitted via: audiograbber 1.83.01
#
DISCID=ae08c70e
DTITLE=Various Artist - Country And Western - CD 2 (1996)
DYEAR=1996
DGENRE=Country
TTITLE0=Freedy Fender - Washed Days And Wasted Nights
TTITLE1=Willie Nelson - A Moment Isn't  Very Long
TTITLE2=Lynn Anderson - Snowbird
TTITLE3=Billie Jo Spears - Misty Blue
TTITLE4=Don Williams - Where Do I Go From Here
TTITLE5=Carl Perkins - Daddy Sang Bass
TTITLE6=Dolly Parton - Letter To Heaven
TTITLE7=Skeeter Davis - End Of The World
TTITLE8=Stonewall Jackson - Waterloo
TTITLE9=Faron Young - Swinging Doors
TTITLE10=Sammi Smith - Help Me Make It Through The Night
TTITLE11=Patsy Cline - Just Out Of Reach
TTITLE12=Johnny Russell - Act Naturally
TTITLE13=Frankie Laine - Jezebel
EXTD=
EXTT0=
EXTT1=
EXTT2=
EXTT3=
EXTT4=
EXTT5=
EXTT6=
EXTT7=
EXTT8=
EXTT9=
EXTT10=
EXTT11=
EXTT12=
EXTT13=
PLAYORDER=
